<svg width="1018" height="853" viewBox="0 0 1018 853" fill="none" xmlns="http://www.w3.org/2000/svg">
<path d="M148.907 308.69H75.7969V701.63H148.907V308.69Z" fill="black"/>
<path d="M376.423 493.85H303.312V701.64H376.423V493.85Z" fill="black"/>
<path d="M376.422 701.63V628.52H90.8419V701.63H376.422Z" fill="black"/>
<path d="M376.423 308.69H303.312V381.8H376.423V308.69Z" fill="black"/>
<path d="M0.960938 413.5V329.08L339.861 133.43V217.84L0.960938 413.5Z" fill="black"/>
<path d="M525.896 675.46H376.406V701.63H525.896V675.46Z" fill="black"/>
<path d="M512.823 628.53H354.062V654.7H512.823V628.53Z" fill="black"/>
<path d="M499.727 0.670044L499.727 694.6H525.897V0.670044H499.727Z" fill="black"/>
<path d="M591.992 158.2V852.13H618.162V158.2H591.992Z" fill="black"/>
<path d="M618.161 675.46H538.641V701.63H618.161V675.46Z" fill="black"/>
<path d="M618.161 628.53H538.641V654.7H618.161V628.53Z" fill="black"/>
<path d="M968.638 628.53H630.898V654.7H968.638V628.53Z" fill="black"/>
<path d="M1017.66 675.46H630.898V701.63H1017.66V675.46Z" fill="black"/>
<path d="M525.898 295.03L338.838 187.04L325.758 209.7L525.898 325.26V295.03Z" fill="black"/>
<path d="M538.641 302.39V332.61L618.161 378.52V348.3L538.641 302.39Z" fill="black"/>
<path d="M538.523 248.15V278.37L618.163 324.36V294.13L538.523 248.15Z" fill="black"/>
<path d="M525.779 240.8L339.809 133.43L326.719 156.09L525.779 271.02V240.8Z" fill="black"/>
<path d="M103.66 746.825H115.524L143.851 811.94H127.664L122.054 798.144H96.7625L91.3362 811.94H75.5174L103.66 746.825ZM109.178 765.771L101.269 786.004H117.18L109.178 765.771ZM150.4 746.825H171.921C177.133 746.825 182.069 747.408 186.729 748.573C191.45 749.738 195.558 751.638 199.053 754.275C202.547 756.85 205.306 760.222 207.33 764.391C209.414 768.561 210.457 773.619 210.457 779.566C210.457 784.839 209.445 789.499 207.422 793.546C205.46 797.531 202.793 800.904 199.42 803.663C196.048 806.36 192.155 808.414 187.74 809.825C183.326 811.235 178.696 811.94 173.853 811.94H150.4V746.825ZM164.748 798.696H172.197C175.508 798.696 178.574 798.359 181.394 797.685C184.276 797.01 186.759 795.907 188.844 794.374C190.929 792.78 192.553 790.726 193.718 788.212C194.945 785.637 195.558 782.51 195.558 778.831C195.558 775.642 194.945 772.883 193.718 770.553C192.553 768.162 190.959 766.2 188.936 764.667C186.912 763.135 184.521 762 181.762 761.264C179.064 760.467 176.213 760.069 173.209 760.069H164.748V798.696ZM220.186 746.825H241.891L256.882 789.315H257.066L272.149 746.825H293.762V811.94H279.415V762H279.231L262.125 811.94H251.18L234.717 762H234.534V811.94H220.186V746.825ZM328.466 746.825H340.33L368.657 811.94H352.47L346.86 798.144H321.568L316.142 811.94H300.323L328.466 746.825ZM333.984 765.771L326.075 786.004H341.985L333.984 765.771ZM375.206 746.825H400.406C403.717 746.825 406.844 747.162 409.787 747.837C412.791 748.45 415.397 749.523 417.604 751.056C419.873 752.527 421.651 754.551 422.938 757.126C424.287 759.64 424.962 762.797 424.962 766.599C424.962 771.197 423.766 775.121 421.375 778.371C418.984 781.559 415.489 783.583 410.89 784.441L427.445 811.94H410.247L396.635 785.912H389.553V811.94H375.206V746.825ZM389.553 773.772H398.015C399.302 773.772 400.651 773.742 402.061 773.68C403.533 773.558 404.851 773.282 406.016 772.853C407.181 772.362 408.131 771.626 408.867 770.645C409.664 769.664 410.063 768.285 410.063 766.507C410.063 764.851 409.725 763.533 409.051 762.552C408.376 761.571 407.518 760.835 406.476 760.345C405.433 759.793 404.238 759.425 402.889 759.241C401.54 759.057 400.222 758.965 398.934 758.965H389.553V773.772ZM456.272 746.825H468.136L496.463 811.94H480.276L474.666 798.144H449.374L443.948 811.94H428.129L456.272 746.825ZM461.79 765.771L453.881 786.004H469.791L461.79 765.771Z" fill="black"/>
<path d="M636.913 746.805H642.983V811.92H636.913V746.805ZM660.804 746.805H668.621L708.26 803.827H708.444V746.805H714.514V811.92H706.697L667.058 754.899H666.874V811.92H660.804V746.805ZM728.155 779.363C728.155 774.396 728.983 769.828 730.639 765.659C732.294 761.49 734.593 757.903 737.536 754.899C740.479 751.833 744.005 749.442 748.113 747.725C752.282 746.008 756.85 745.15 761.816 745.15C766.783 745.15 771.32 746.008 775.428 747.725C779.597 749.442 783.153 751.833 786.097 754.899C789.04 757.903 791.339 761.49 792.994 765.659C794.65 769.828 795.477 774.396 795.477 779.363C795.477 784.329 794.65 788.927 792.994 793.158C791.339 797.327 789.04 800.945 786.097 804.011C783.153 807.015 779.597 809.375 775.428 811.092C771.32 812.748 766.783 813.575 761.816 813.575C756.85 813.575 752.282 812.748 748.113 811.092C744.005 809.375 740.479 807.015 737.536 804.011C734.593 800.945 732.294 797.327 730.639 793.158C728.983 788.927 728.155 784.329 728.155 779.363ZM734.225 779.363C734.225 783.409 734.869 787.18 736.157 790.675C737.444 794.17 739.284 797.205 741.675 799.78C744.066 802.355 746.948 804.378 750.32 805.85C753.754 807.321 757.586 808.057 761.816 808.057C766.047 808.057 769.848 807.321 773.221 805.85C776.654 804.378 779.567 802.355 781.958 799.78C784.349 797.205 786.188 794.17 787.476 790.675C788.764 787.18 789.407 783.409 789.407 779.363C789.407 775.316 788.764 771.545 787.476 768.05C786.188 764.555 784.349 761.52 781.958 758.945C779.567 756.37 776.654 754.347 773.221 752.875C769.848 751.404 766.047 750.668 761.816 750.668C757.586 750.668 753.754 751.404 750.32 752.875C746.948 754.347 744.066 756.37 741.675 758.945C739.284 761.52 737.444 764.555 736.157 768.05C734.869 771.545 734.225 775.316 734.225 779.363ZM799.891 746.805H806.42L827.39 803.919L848.543 746.805H854.981L830.241 811.92H824.171L799.891 746.805ZM863.605 746.805H869.675V811.92H863.605V746.805ZM907.453 746.805H913.707L941.114 811.92H934.308L927.227 794.63H892.738L885.38 811.92H879.034L907.453 746.805ZM910.304 753.427L895.129 789.111H925.019L910.304 753.427Z" fill="black"/>
<path d="M887.158 503.6L630.898 355.65V385.88L887.158 533.83V503.6Z" fill="black"/>
<path d="M838.158 421.15L630.898 301.49V331.71L838.158 451.37V421.15Z" fill="black"/>
</svg>
