<svg width="1331" height="669" viewBox="0 0 1331 669" fill="none" xmlns="http://www.w3.org/2000/svg">
<path d="M1119.57 157.012H1299.86V239.115H1119.57V157.012ZM1127.33 310.123H1330.37V395H1018.6V6.67517H1323.16V91.5519H1127.33V310.123Z" fill="white"/>
<path d="M882.133 403.858C851.437 403.858 822.96 399.05 796.702 389.434C770.444 379.449 747.699 365.395 728.468 347.273C709.606 329.152 694.813 307.886 684.088 283.477C673.363 258.698 668 231.516 668 201.929C668 172.342 673.363 145.344 684.088 120.935C694.813 96.1566 709.791 74.7063 729.022 56.5845C748.254 38.4627 770.999 24.5939 797.257 14.9783C823.885 4.99276 852.917 0 884.352 0C920.966 0 953.696 6.10226 982.543 18.3067C1011.39 30.5113 1035.24 48.0783 1054.11 71.008L984.207 134.249C970.893 119.826 956.47 109.101 940.937 102.074C925.774 94.6773 908.761 90.979 889.9 90.979C873.257 90.979 858.094 93.5678 844.41 98.7455C830.727 103.923 819.077 111.505 809.461 121.49C799.846 131.106 792.264 142.756 786.716 156.439C781.539 169.753 778.95 184.917 778.95 201.929C778.95 218.202 781.539 233.18 786.716 246.864C792.264 260.547 799.846 272.382 809.461 282.368C819.077 291.983 830.542 299.565 843.856 305.112C857.539 310.29 872.518 312.879 888.79 312.879C905.063 312.879 920.966 310.29 936.499 305.112C956.458 298.459 975 282.368 984.207 262.591L1045.23 354.485C1023.04 370.388 997.336 382.592 968.12 391.099C938.903 399.605 910.241 403.858 882.133 403.858ZM948.149 340.062C948.149 309.808 984.207 292.845 984.207 262.591H882.133V188H1045.23V354.485L948.149 340.062Z" fill="white"/>
<path d="M297.485 395L468.903 6.67517H577.079L749.051 395H634.773L500.523 60.4859H543.794L409.544 395H297.485ZM391.238 319.554L419.53 238.561H609.254L637.546 319.554H391.238Z" fill="white"/>
<path d="M99.0232 309.014L92.921 185.859L259.901 6.67517H380.836L214.411 186.969L153.389 250.765L99.0232 309.014ZM0.83252 395V6.67517H109.563V395H0.83252ZM261.565 395L135.082 234.677L206.645 158.122L389.157 395H261.565Z" fill="white"/>
<path d="M1226.95 590.275L1230.29 585.901C1233.04 582.642 1234.75 580.498 1235.44 579.469C1230.46 581.699 1226.52 583.157 1223.6 583.843C1220.69 584.7 1219.23 585.301 1219.23 585.644L1226.95 590.275ZM1228.23 605.711C1228.23 603.996 1227.98 602.195 1227.46 600.308C1202.25 631.868 1189.64 650.734 1189.64 656.909C1189.64 657.424 1189.9 657.681 1190.41 657.681C1193.33 657.681 1197.79 654.851 1203.79 649.191C1209.8 643.531 1215.37 636.499 1220.52 628.094C1225.66 619.69 1228.23 612.229 1228.23 605.711ZM1207.65 585.901C1208.17 584.529 1208.6 583.757 1208.94 583.586C1209.11 583.414 1209.71 583.243 1210.74 583.071C1211.77 583.071 1215.03 582.299 1220.52 580.756C1226 579.383 1232.52 577.068 1240.07 573.809C1262.02 545.852 1273.6 530.673 1274.8 528.271C1276.17 525.699 1276.86 524.155 1276.86 523.64C1276.86 523.126 1276.52 522.869 1275.83 522.869C1275.14 522.869 1274.37 523.469 1273.51 524.67C1273.17 524.841 1270.86 526.899 1266.57 530.844C1262.45 534.618 1258.34 538.134 1254.22 541.392C1250.27 544.651 1245.64 547.824 1240.33 550.912C1235.01 553.827 1230.46 555.285 1226.69 555.285C1222.92 555.285 1221.03 553.913 1221.03 551.169C1221.2 544.823 1225.49 536.075 1233.89 524.927C1242.47 513.778 1248.22 508.204 1251.13 508.204C1254.05 508.204 1255.51 508.976 1255.51 510.519C1255.51 511.377 1251.56 516.694 1243.67 526.47C1235.95 536.247 1232.09 542.336 1232.09 544.737C1232.09 547.138 1232.87 548.339 1234.41 548.339C1237.5 548.339 1246.33 542.078 1260.91 529.558C1275.66 517.037 1284.75 510.777 1288.18 510.777C1289.21 510.777 1290.15 511.291 1291.01 512.32C1292.04 513.349 1292.55 514.464 1292.55 515.665C1292.55 519.438 1280.2 536.333 1255.51 566.348C1278.66 553.484 1300.19 538.905 1320.08 522.611L1325.74 517.98C1327.11 517.123 1328.23 516.694 1329.09 516.694C1329.94 516.694 1330.37 517.123 1330.37 517.98L1330.12 519.009C1330.97 519.009 1326.43 522.783 1316.48 530.33C1306.53 537.876 1297.36 544.565 1288.95 550.397C1280.55 556.229 1267.6 563.604 1250.1 572.523L1231.84 594.906C1234.24 598.336 1235.44 602.367 1235.44 606.998C1235.44 614.887 1232.09 623.635 1225.4 633.24C1218.72 643.016 1211.25 651.077 1203.02 657.424C1194.62 663.941 1187.76 667.2 1182.44 667.2C1180.9 667.2 1179.52 666.6 1178.32 665.399C1176.95 664.37 1176.26 662.826 1176.26 660.768C1176.26 658.881 1177.29 655.966 1179.35 652.021C1181.24 648.076 1184.15 643.445 1188.1 638.128C1191.87 632.982 1195.47 628.266 1198.9 623.978C1202.34 619.861 1206.71 614.63 1212.03 608.284C1217.34 601.938 1221.29 597.221 1223.86 594.134C1220.77 591.39 1217.26 589.674 1213.31 588.988C1209.54 588.302 1207.65 587.273 1207.65 585.901Z" fill="white"/>
<path d="M1238.23 518.238C1239.6 517.38 1240.72 516.951 1241.58 516.951C1242.61 516.951 1243.12 517.552 1243.12 518.752V519.267C1229.57 531.273 1215.59 541.821 1201.18 550.912C1186.78 560.002 1174.77 564.547 1165.17 564.547C1157.62 564.547 1153.85 560.088 1153.85 551.169C1153.85 542.078 1159.25 532.216 1170.05 521.582C1181.03 510.948 1192.87 505.631 1205.56 505.631C1209.33 505.974 1211.65 506.575 1212.5 507.432C1213.53 508.29 1214.05 509.49 1214.05 511.034C1214.05 512.578 1212.42 515.408 1209.16 519.524C1206.07 523.469 1203.24 525.441 1200.67 525.441C1197.75 524.927 1196.3 523.898 1196.3 522.354C1196.3 521.668 1197.07 520.553 1198.61 519.009C1201.53 516.437 1202.99 514.55 1202.99 513.349C1202.99 512.149 1202.04 511.548 1200.16 511.548C1194.15 511.72 1186.61 516.694 1177.52 526.47C1168.42 536.075 1163.88 544.051 1163.88 550.397C1163.88 555.2 1166.97 557.601 1173.14 557.601C1179.49 557.601 1186.26 555.371 1193.47 550.912C1206.16 543.193 1218.94 534.017 1231.8 523.383L1238.23 518.238Z" fill="white"/>
<path d="M1181.18 519.009C1144.99 549.196 1122.61 564.29 1114.03 564.29C1109.06 564.29 1106.57 562.232 1106.57 558.115C1106.57 553.999 1108.37 549.111 1111.98 543.451C1115.75 537.791 1119.44 532.817 1123.04 528.529C1126.81 524.069 1128.7 521.411 1128.7 520.553C1128.7 519.696 1128.44 519.267 1127.93 519.267C1111.98 529.901 1102.46 536.418 1099.37 538.82C1096.45 541.221 1091.57 545.166 1084.7 550.654C1078.02 556.143 1073.64 559.573 1071.58 560.945C1069.53 562.317 1067.3 563.004 1064.89 563.004C1062.49 563.004 1061.29 561.974 1061.29 559.916C1061.29 557.515 1066.09 549.968 1075.7 537.276C1084.96 524.584 1089.59 517.466 1089.59 515.922C1089.59 515.579 1089.25 515.408 1088.56 515.408C1088.05 515.408 1080.67 520.639 1066.44 531.101L1065.41 527.242C1077.59 517.466 1085.82 511.205 1090.11 508.461C1094.4 505.717 1097.83 504.345 1100.4 504.345C1103.14 504.345 1104.51 505.631 1104.51 508.204C1104.51 509.919 1099.63 516.951 1089.85 529.3C1080.25 541.478 1075.44 548.082 1075.44 549.111C1075.44 549.968 1075.7 550.397 1076.21 550.397C1076.9 550.397 1086.68 543.536 1105.54 529.815C1124.58 515.922 1136.16 508.976 1140.28 508.976C1141.48 508.976 1142.59 509.49 1143.62 510.519C1144.82 511.377 1145.42 512.235 1145.42 513.092C1145.42 515.15 1140.88 522.011 1131.79 533.674C1122.7 545.166 1118.15 551.683 1118.15 553.227C1118.15 554.771 1119.18 555.543 1121.24 555.543C1123.47 555.543 1128.1 553.227 1135.13 548.596C1147.99 540.192 1159.83 531.53 1170.63 522.611L1176.29 517.98C1177.5 517.123 1178.61 516.694 1179.64 516.694C1180.67 516.694 1181.18 517.209 1181.18 518.238V519.009Z" fill="white"/>
<path d="M1076.52 518.238C1077.72 517.38 1078.84 516.951 1079.86 516.951C1080.89 516.951 1081.41 517.552 1081.41 518.752V519.267C1063.57 534.017 1048.73 545.08 1036.9 552.455C1025.06 559.831 1014.34 563.518 1004.74 563.518C997.022 563.518 993.163 559.745 993.163 552.198C993.163 541.049 998.823 529.644 1010.14 517.98C1021.46 506.146 1030.98 500.228 1038.7 500.228C1042.99 500.228 1045.13 502.63 1045.13 507.432C1044.27 516.866 1030.72 529.558 1004.48 545.509V548.082C1004.48 553.742 1007.4 556.572 1013.23 556.572C1019.23 556.572 1025.67 554.599 1032.53 550.654C1045.9 542.765 1058.42 533.76 1070.09 523.641L1076.52 518.238ZM1032.01 508.204C1028.24 508.204 1023.35 511.377 1017.35 517.723C1011.51 524.069 1007.57 531.273 1005.51 539.334C1013.74 534.36 1020.69 529.129 1026.35 523.641C1032.01 517.98 1034.84 514.036 1034.84 511.806C1034.84 509.405 1033.9 508.204 1032.01 508.204Z" fill="white"/>
<path d="M1010.43 518.238C1011.63 517.38 1012.75 516.951 1013.78 516.951C1014.81 516.951 1015.32 517.552 1015.32 518.752V519.267C998.684 532.988 985.648 542.936 976.215 549.111L924.76 582.557L908.809 604.939C884.11 638.728 871.761 656.909 871.761 659.482C869.017 665.485 866.358 668.486 863.786 668.486C860.527 668.486 858.897 666.343 858.897 662.055C858.897 657.767 861.041 652.021 865.329 644.817C869.446 637.613 873.562 631.782 877.679 627.322L902.12 601.595C904.178 598.336 908.38 592.333 914.726 583.586C921.072 574.838 925.274 569.007 927.333 566.091L938.396 549.625L938.91 548.596C938.91 548.253 938.739 548.082 938.396 548.082C928.276 556.486 919.872 560.688 913.183 560.688C906.493 560.688 903.149 558.801 903.149 555.028C903.149 551.083 905.722 545.938 910.867 539.592C916.013 533.245 922.187 527.071 929.391 521.068C936.766 515.065 944.827 509.919 953.575 505.631C962.494 501.172 970.298 498.942 976.987 498.942C983.847 498.942 987.278 501.343 987.278 506.146C987.278 509.576 984.019 513.693 977.501 518.495C971.155 523.297 967.21 525.699 965.667 525.699C964.295 525.699 963.608 525.356 963.608 524.67C963.608 523.641 964.295 522.697 965.667 521.84C971.498 517.723 974.414 513.864 974.414 510.262C974.414 506.489 972.87 504.602 969.783 504.602C962.236 504.602 951.688 511.034 938.138 523.898C924.76 536.59 918.071 545.595 918.071 550.912C918.071 552.455 919.271 553.227 921.673 553.227C924.245 553.227 928.533 551.255 934.536 547.31C940.539 543.193 945.085 539.249 948.172 535.475L955.118 526.728C955.976 525.527 957.091 524.927 958.463 524.927C959.835 524.927 961.036 525.356 962.065 526.213C963.094 527.071 963.608 527.928 963.608 528.786L932.478 572.008L970.555 548.082C981.875 541.221 993.195 532.988 1004.52 523.383L1010.43 518.238Z" fill="white"/>
<path d="M757.676 500.323C757.676 504.01 764.387 507.55 777.81 510.943C785.48 512.713 794.773 514.188 805.688 515.368C791.97 503.125 778.4 497.004 764.978 497.004C760.11 497.004 757.676 498.11 757.676 500.323ZM845.291 559.397C848.389 559.397 856.059 547.228 868.301 522.89C851.781 523.185 841.456 523.333 837.326 523.333C833.344 523.333 827.665 523.185 820.29 522.89C828.993 533.363 836.072 544.499 841.53 556.299C842.415 558.364 843.669 559.397 845.291 559.397ZM914.543 409.61C909.675 409.61 903.185 414.847 895.072 425.319C886.96 435.644 876.193 450.32 862.77 469.348C849.495 488.375 837.105 504.158 825.6 516.695C835.925 516.99 844.923 517.138 852.592 517.138C860.41 517.138 866.679 516.99 871.399 516.695C881.871 496.045 892.049 474.215 901.931 451.205C911.961 428.195 916.976 414.994 916.976 411.602C916.976 410.274 916.165 409.61 914.543 409.61ZM883.346 516.253L929.366 512.934C930.546 512.934 931.136 513.524 931.136 514.704C931.136 515.884 930.104 517.138 928.039 518.465C926.121 519.793 922.286 520.678 916.534 521.12C910.781 521.563 898.613 522.005 880.028 522.448C864.983 551.8 854.363 566.477 848.168 566.477C844.038 566.477 841.087 564.633 839.318 560.945C832.828 547.818 825.231 536.313 816.529 526.43L810.113 532.625C788.283 552.98 762.839 563.158 733.781 563.158C726.406 563.158 719.99 562.568 714.532 561.388C708.927 560.355 706.125 558.88 706.125 556.963C706.125 555.635 706.936 554.972 708.559 554.972C709.591 554.972 710.845 555.267 712.32 555.857C716.745 557.627 725.079 558.512 737.321 558.512C759.299 558.512 780.096 549.883 799.714 532.625C806.794 525.988 810.408 522.595 810.555 522.448C796.69 521.415 785.038 519.572 775.598 516.917C758.783 512.197 750.375 506.592 750.375 500.102C750.375 497.889 751.555 496.045 753.915 494.57C756.423 493.095 759.668 492.358 763.65 492.358C781.203 492.358 797.87 500.249 813.653 516.032C814.98 516.032 815.939 516.105 816.529 516.253C829.656 502.093 845.66 482.033 864.54 456.073C871.178 447.075 877.815 438.373 884.452 429.965C898.317 412.56 909.675 403.858 918.525 403.858C924.278 403.858 927.154 406.365 927.154 411.38C927.154 414.773 922.36 428.048 912.773 451.205C903.333 474.215 893.524 495.898 883.346 516.253Z" fill="white"/>
</svg>
